<svg xmlns="http://www.w3.org/2000/svg" viewBox="0 0 64 64" width="64" height="64" fill="none">
  <circle cx="32" cy="32" r="30" fill="#FFA500" stroke="none"/>
  <path d="M50 14a8 8 0 0 1-8-8 16 16 0 1 0-16 16c4.5 0 8.5-1.9 11.5-5 3.1-3.2 5-7.5 5-11.5 0-1.8-.6-3.6-1.5-5a7.9 7.9 0 0 1-6 6.5 8 8 0 0 1 15 7z" fill="#FFB347"/>
  <circle cx="22" cy="22" r="2.5" fill="#9A4E00"/>
  <circle cx="38" cy="28" r="3" fill="#9A4E00"/>
  <circle cx="28" cy="38" r="2.5" fill="#9A4E00"/>
  <circle cx="42" cy="42" r="3" fill="#9A4E00"/>
  <circle cx="18" cy="34" r="2.5" fill="#9A4E00"/>
  <circle cx="32" cy="18" r="2" fill="#9A4E00"/>
  <circle cx="26" cy="48" r="2.5" fill="#9A4E00"/>
</svg>